<svg xmlns="http://www.w3.org/2000/svg" version="1.1" viewBox="-5.0 -10.0 110.0 135.0">
 <path d="m88.199 12.418v-7.3633c0-0.26172-0.10547-0.51953-0.29297-0.70703s-0.44141-0.29297-0.70703-0.29297h-74.398c-0.55078 0-1 0.44922-1 1v7.2695l-0.95703 6.8008c-0.042969 0.28906 0.042969 0.57812 0.23438 0.79688s0.46484 0.34766 0.75391 0.34766h1.2109v73.051h0.019531c-0.007812 0.32031 0.14062 0.625 0.40234 0.81641 0.16406 0.11719 0.36328 0.24609 0.54688 0.35547v-0.003907c0.20703 0.13672 0.42578 0.26172 0.64844 0.37109 0.61719 0.32031 1.2656 0.57422 1.9336 0.76172 0.80859 0.21484 1.6406 0.32422 2.4766 0.32422 0.84375-0.003906 1.6836-0.10937 2.5039-0.32422 0.42188-0.10938 0.72266-0.47656 0.74609-0.91406 0.011719-0.17969 0.011719-0.39453 0.011719-0.59766 0.48438 0.10156 0.97266 0.17188 1.4688 0.21094 0.23047 0.011719 0.4375 0.019532 0.65625 0.019532 0.91016 0.007812 1.8164-0.10156 2.6992-0.32031 0.29688-0.070312 0.5625-0.13672 0.80469-0.21875 0.42578-0.14062 0.70312-0.55078 0.68359-0.99609-0.015625-0.30859-0.035156-0.64844-0.058593-1.0078l-0.046876-0.69531 42.906 0.003907c-0.007812 0.10938-0.015624 0.22656-0.023437 0.33203l-0.019531 0.31641c-0.023438 0.375-0.046875 0.72656-0.0625 1.0508h-0.003906c-0.023438 0.45312 0.26562 0.86328 0.69922 1 0.57422 0.18359 1.1641 0.32031 1.7578 0.41406 0.55469 0.078125 1.1133 0.12109 1.6719 0.12109 0.26953 0 0.54688-0.007813 0.82812-0.027344 0.085937-0.007812 0.17578-0.015625 0.26172-0.03125 0.37109-0.039062 0.73828-0.097656 1.1055-0.17188 0.003906 0.19141-0.007812 0.38672 0 0.57812 0.015625 0.44141 0.32031 0.82031 0.74609 0.92969 0.81641 0.21484 1.6562 0.32422 2.5039 0.32422 2.0117 0 3.9727-0.63281 5.6055-1.8125 0.054687-0.046875 0.10547-0.097656 0.14453-0.15625h0.015625v-0.019531h0.003907c0.15234-0.17578 0.23437-0.39844 0.23437-0.63281h0.023438v-73.051h1.2305c0.28906 0 0.5625-0.125 0.75391-0.34766 0.19141-0.21875 0.27734-0.50781 0.23438-0.79688zm-11.414 79.453h0.90234c-0.003906 0.058594-0.007812 0.11328-0.011719 0.17188-0.29688 0.074219-0.59375 0.13281-0.89062 0.17578zm-51.949 0h1.7227v0.23438h-0.003906c-0.56641 0.12891-1.1406 0.19922-1.7227 0.21484zm-11.035-80.055v-1.5898h0.375v1.7227h-0.36328 0.003906c-0.003906-0.042969-0.007812-0.089844-0.015625-0.13281zm73.211 6.4531h-0.33594v-0.62109h0.24609zm-3.8711 75.328h-1.4102v-1.7227h1.7227v1.625c-0.10156 0.035156-0.20703 0.066406-0.30859 0.097656zm-63.27 0 0.003906-1.7227h0.42578c0.007813 0.16797 0.019531 0.33203 0.023438 0.51172 0.019531 0.41797 0.019531 0.82031 0.011719 1.2148zm55.34-14.094h0.82031v1.7227h-1.2031c0.027344-0.12891 0.050781-0.25781 0.082031-0.39062 0.10156-0.46484 0.20312-0.90625 0.30078-1.332zm3.2969-7.4219v1.7227l-1.707 0.003906c0.20312-0.61328 0.39453-1.1875 0.57422-1.7148l0.003906-0.007812zm0.75-4.7734c0.023438-0.050782 0.039063-0.09375 0.0625-0.14453l0.011719-0.027343h1.6484v1.7227h-1.7227zm-2.4727-10.82v-1.7227h0.60156c0.046875 0.070313 0.09375 0.14062 0.14062 0.21094l0.19141 0.26953c0.11719 0.16797 0.23828 0.33594 0.34375 0.47656 0.14453 0.20703 0.29297 0.41016 0.44141 0.61328v0.15625zm-2.4727-2.4727-0.003906-1.7227h1.4375c0.035156 0.054687 0.066406 0.11328 0.10156 0.16016 0.0625 0.097656 0.12109 0.1875 0.18359 0.28125v1.2812zm-2.1758-2.4727c-0.058594-0.074219-0.11328-0.14062-0.18359-0.23438-0.042969-0.054688-0.074219-0.10156-0.11328-0.15625l-0.003906-1.3359h1.7266v1.7227zm-2.7695-6.6836h1.7227v1.7227l-1.7266 0.003907zm-2.0469-0.75-0.050781-0.09375c-0.125-0.23438-0.25-0.47656-0.375-0.71875v-0.91016h1.7227v1.7227zm-2.3906-4.9492-0.011719-0.03125c-0.16797-0.375-0.33203-0.76562-0.49609-1.1641v-0.52344h1.7227v1.7227zm-2.4062-7.418c-0.11719-0.55469-0.22656-1.1328-0.31641-1.7227h1.457v1.7227zm-24.355-9.1445c0.03125 0.55859 0.039062 1.1328 0.035156 1.7227h-1v-1.7227zm-1.7148 1.7227h-1.7266v-1.7227h1.7227zm-1.7266 12.367v-1.7227h1.7227v0.57812c-0.13672 0.41797-0.26953 0.80078-0.38281 1.1289l-0.007812 0.019531zm-0.75 4.8125c-0.023437 0.046875-0.042968 0.089844-0.066406 0.13672h-1.6562v-1.7227h1.7227zm-2.4727 4.6602c-0.058594 0.097656-0.11328 0.19922-0.17188 0.29297-0.023437 0.042969-0.054687 0.089844-0.078125 0.13281h-1.4727v-1.7266h1.7227zm-4.9492 6.9531c-0.11719 0.13672-0.21875 0.24609-0.29688 0.33203-0.011718 0.015626-0.027343 0.03125-0.039062 0.042969-0.039062 0.042969-0.10156 0.11328-0.11328 0.125-0.042969 0.046875-0.085938 0.09375-0.097657 0.10938-0.089843 0.097656-0.18359 0.19531-0.27344 0.29297h-0.91016l0.007812-1.7227h1.7227zm-2.7969 2.957-0.078124 0.078126c-0.12109 0.11719-0.25391 0.22656-0.375 0.33984h-0.95313l-0.003906-1.3711c0.035156-0.050782 0.078125-0.10547 0.11328-0.15625l0.13281-0.19141h1.4883v0.97656c-0.10938 0.10547-0.21484 0.21484-0.32422 0.32422zm-2.1602 15.262h-1.7227v-1.7227h1.7227zm1.8242 3.2227c0.023437 0.089843 0.050781 0.18359 0.074219 0.25391l0.074218 0.25391c0.11328 0.38672 0.23438 0.79688 0.35547 1.2148l-1.5781 0.003906v-1.7227zm2.3203 9.8945c0.074218 0.41016 0.13672 0.82422 0.19922 1.2656 0.023438 0.15234 0.042969 0.30469 0.066406 0.46094h-1.1758v-1.7227zm-1.6602 1.7266h-1.7344v-1.7227h1.7344zm60.855-27.215h-0.73047l-0.003906-0.5625 0.73047-0.40625zm-8.9023 23.016v1.7227l-1.6758 0.003906c0.097656-0.58984 0.20312-1.168 0.31641-1.7227zm0.75 0h1.7227v1.7227l-1.7227 0.003906zm3.8047-5.6953h-1.332v-1.7227h1.5664c-0.074219 0.58594-0.15234 1.1602-0.23438 1.7227zm-0.11328 0.75c-0.089843 0.58984-0.18359 1.1641-0.28125 1.7227h-0.9375v-1.7227zm-0.41797 2.4727c-0.10938 0.59375-0.22266 1.168-0.33984 1.7227h-0.46094v-1.7227zm-0.50391 2.4727c-0.097657 0.42969-0.19531 0.84766-0.29688 1.2539v-1.2539zm1.2969 3.0352 0.035157-0.125c0.03125-0.11328 0.0625-0.23438 0.09375-0.34766v1.6367h-0.4375c0.12109-0.48047 0.23047-0.875 0.3125-1.1641zm0.87891-0.5625h1.7227v1.7266h-1.7227zm0-0.75v-1.7227h1.7227v1.7227zm0.03125-2.4727c0.11328-0.55859 0.22656-1.1289 0.33203-1.7227h1.3594v1.7227zm0.46094-2.4727c0.09375-0.55859 0.1875-1.1328 0.27734-1.7227h0.95703v1.7227zm0.38672-2.4727c0.082031-0.5625 0.15625-1.1367 0.23047-1.7227h0.61328v1.7227zm0.32422-2.4727c0.050781-0.43359 0.10547-0.86719 0.15234-1.3164 0.015624-0.13672 0-0.27734-0.042969-0.41016h0.41016v1.7227zm-1.2031-2.4727v-1.7266h1.7227v1.7227zm0-2.4727v-1.7266h1.7227v1.7227zm0-2.4727v-1.7305h1.7227v1.7266zm0-2.4727v-0.3125l1.7227-0.99219v1.3047zm-24.738-50.234v-0.98047h0.15234zm2.4727-0.98047h1.7266v1.7227h-1.7266zm2.4766 0h1.6289l0.097657 0.67578v1.0469h-1.7266zm19.789 48.59v-1.5234l0.10156-0.054687h1.625l-0.003906 0.58203zm-2.4727-7.3398v-1.6602h1.5977c0.042969 0.17188 0.085937 0.34375 0.12891 0.51562v1.207h-1.6836zm-1.7305-2.5898c-0.085938-0.12891-0.16016-0.25391-0.27344-0.44141-0.15625-0.24609-0.3125-0.49609-0.46875-0.75v-0.35156l1.7227-0.003906v1.7227h-0.86328c-0.042969-0.058593-0.082031-0.11328-0.12109-0.17578zm-2.8398-4.8672c-0.12109-0.23047-0.25-0.48828-0.37891-0.73438v-0.90234h1.7227v1.7227l-1.293 0.003907c-0.019531-0.039063-0.039062-0.070313-0.050781-0.089844zm-1.2344-2.4609c-0.24219-0.51562-0.5-1.0664-0.76172-1.6484h0.86719v1.7227h-0.070313c-0.011719-0.023437-0.023437-0.046875-0.035156-0.074219zm-1.1055-2.418c-0.16797-0.39453-0.33984-0.80469-0.51172-1.2188v-0.48438h1.7266v1.7227h-1.207zm9.3828 15.621h0.23047c0.007812 0.035157 0.015624 0.070313 0.019531 0.10156l-0.125 0.070312c-0.042969-0.050781-0.085938-0.10938-0.125-0.16016zm0-0.75v-0.39453c0.027343 0.13281 0.054687 0.26172 0.078125 0.39453zm-12.109-22.273c-0.09375-0.29297-0.17969-0.57422-0.26172-0.85547l0.003906-0.86719h1.7227v1.7227zm2.2148-1.7227h1.7266v1.7227h-1.7266zm1.7266-12.223v1.5781h-1.7266v-1.5781zm2.2344-2h-1.4883v-0.62109h1.3945zm-2.2344 0h-1.7266v-0.62109h1.7266zm-2.4766 0h-1.2734l0.089844-0.62109h1.1836zm-4.1992-0.55469h0.98438l-0.19922 1.4141c-0.003906 0.082032 0 0.16406 0.015625 0.24219h-0.80078zm2.4727 2.5547h1.7227v1.5781h-1.7188zm1.7227 2.3281v1.7227h-1.7188v-1.7227zm0.75 0h1.7266v1.7227h-1.7227zm1.7266 2.4727v1.7227h-1.7227v-1.7227zm0 2.4727v1.7227h-1.7227v-1.7227zm0 2.4727v1.7266h-1.7227v-1.7266zm4.9492 11.043c-0.14062-0.003906-0.27734 0.019531-0.40625 0.070312-0.23047 0.097656-0.41406 0.28125-0.51953 0.50781h-0.80078l0.003906-1.7227h1.7227zm-1.7227-1.8945v-1.7266h1.7227v1.7227zm0-2.4727v-1.7266h1.7227v1.7227zm-0.75 0-1.7266-0.003906v-1.7227h1.7227zm0.75-2.4727v-1.7266h1.7227v1.7227zm-0.75 0-1.7266-0.003906v-1.7227h1.7227zm-2.4727 0.75v1.7227l-1.7266-0.003906v-1.7227zm0 2.4727v1.7227h-1.7266v-1.7266zm0.75 0h1.7227v1.7227h-1.7266zm1.7227 2.4727v1.7227h-1.7266v-1.7227zm0 2.4727v1.7227h-1.7266v-1.7227zm0.75 0h0.76562c0.007813 0.015625 0.003907 0.035156 0.011719 0.050781 0.23047 0.55078 0.44531 1.1133 0.66406 1.6719h-1.4414zm1.7227 2.4727v1.7227l-1.7227 0.003907v-1.7266zm0 2.4727v1.7344h-1.7227v-1.7305zm0.75 0h0.13281c0.19141 0.57812 0.38281 1.1523 0.5625 1.7344h-0.69531zm1.3828-2.4727h0.34375v0.94922c-0.11328-0.31641-0.23047-0.63281-0.34766-0.94922zm-0.26953-0.75c-0.21875-0.57812-0.44531-1.1523-0.67578-1.7227h1.2891v1.7227zm-0.98438-2.4727c-0.035157-0.070313-0.078125-0.13281-0.12891-0.19141v-1.5312h1.7227v1.7227zm-0.12891-2.4727v-1.7266h1.7227v1.7227zm0-2.4727v-1.7266h1.7227v1.7227zm0-2.4727v-1.7266h1.7227v1.7227zm0-2.4727v-1.7305h1.7227v1.7266zm-0.75 0-1.7227-0.003906v-1.7266h1.7227zm-2.4727 0-1.7266-0.003906v-1.7266h1.7227zm-1.7227-2.4727-0.003906-1.7305h1.7227v1.7227zm0-2.4727-0.003906-1.7305h1.7227v1.7227zm0-2.4727-0.003906-1.7305h1.7227v1.7227zm0-2.4727-0.003906-1.5859h1.7227v1.5781zm3.4219-4.1406h0.77344v1.6602h-0.58594l-0.003906-0.003906c0.019531-0.078125 0.023437-0.16406 0.019531-0.24609zm1.6289-2h-0.10547v-0.53906h0.18359zm-0.85938 0h-1.0508l-0.046875-0.30859v-0.003906c0-0.035156-0.003906-0.070313-0.007812-0.10156l-0.019532-0.125h1.1289zm-2.9062 1.1836h-1.2891v-1.7227h1.043zm-2.0391 0h-1.7227v-1.7227h1.7266zm-2.4766 0h-1.0742l0.003907-0.027344 0.003906-0.015625 0.23828-1.6797h0.82812zm-2.9297-1.1836h-1.2656v-0.53906h1.3438zm-2.0195 0h-0.12109l-0.078125-0.53906h0.19531zm2.0352 4.4102 0.003906-0.003906c0.13281 0.082031 0.28516 0.125 0.44141 0.13672v1.5898h-1.7266v-1.7266zm0.44141 2.4727v1.7227h-1.7227v-1.7227zm0 2.4727v1.7227h-1.7227v-1.7227zm0.75 0h1.7227v1.7227h-1.7188zm1.7227 2.4727v1.7227h-1.7188v-1.7227zm0 2.4727 0.003907 1.7266h-1.7227v-1.7266zm-2.4727 0.59375c-0.050781-0.20312-0.10156-0.40625-0.14844-0.59375h0.14844zm1.3203 4.5977c-0.027344-0.082031-0.054688-0.16406-0.082032-0.24609h1.2344v1.7227h-0.66016c-0.17188-0.48828-0.33594-0.98438-0.48828-1.4727zm1.1523 2.2266v1.0352c-0.12891-0.33984-0.25781-0.6875-0.38281-1.0352zm4.9492 9.8945v1.5742c-0.078125-0.12891-0.15625-0.26562-0.23047-0.39844l-0.31641-0.5625c-0.10938-0.19531-0.22266-0.41016-0.33594-0.61328zm3.2266 2.4883h0.91406c0.16406 0.55469 0.32812 1.1055 0.48047 1.6602 0.003906 0.019532 0.011718 0.042969 0.015625 0.0625l-1.4102 0.003907zm1.7227 4.9492v1.5312c-0.011719-0.015625-0.023438-0.03125-0.039063-0.046875-0.36328-0.46875-0.73047-0.96875-1.0977-1.4844zm2.2031 4.1953 0.26953-0.14844v0.14844zm0.15234-4.9453c-0.13281-0.57812-0.28125-1.1484-0.42578-1.7227h0.54297v1.7227zm-0.61328-2.4727c-0.050781-0.19531-0.09375-0.39453-0.14453-0.58594-0.10156-0.37891-0.21875-0.75781-0.32812-1.1367h1.2031v1.7227zm-0.69141-2.4727c-0.097656-0.33203-0.19922-0.66406-0.30469-0.99219v-0.74219h1.7227v1.7344zm-0.30469-2.4844 0.003907-1.7266h1.7227v1.7227zm0-2.4727 0.003907-1.7266h1.7227v1.7227zm0-2.4727 0.003907-1.7266h1.7227v1.7227zm0-2.4727 0.003907-1.7305h1.7227v1.7227zm0-2.4727 0.003907-1.7305h1.7227v1.7227zm0-2.4727 0.003907-1.7305h1.7227v1.7227zm0-2.4727 0.003907-1.7344h1.7227v1.7266zm0-2.4727 0.003907-1.7344h1.7227v1.7227zm-0.75 0-1.7188-0.011719v-1.7227h1.7227zm-2.4727 0-1.7188-0.011719v-1.7227h1.7227zm-1.7227-2.4727 0.003906-1.7344h1.7227v1.7227zm0-2.4727 0.003906-1.7344h1.7227v1.7227zm0-2.4727 0.003906-1.5898h0.16406c0.17188-0.007812 0.33984-0.054687 0.48828-0.14844h1.0703v1.7227zm2.7656-7.4219-0.28906-0.011719v-1.7266h0.53516zm-1.043 0-1.2305-0.011719-0.24609-1.7227 1.4805-0.003906zm-3.5078-1.7227 0.24609 1.7227h-0.9375l0.003906-1.7383zm-1.4414 1.7227-1.7188-0.011719v-1.7266h1.7266zm-2.4766 0h-0.72266l0.24609-1.7227h0.47656zm-2.7461 0-1.4453-0.011719v-1.7266h1.6992zm-2.2031 0h-0.30469l-0.074219-0.51562-0.17188-1.207h0.54688zm-0.62109 5.8438 0.007813-0.011719c0.17188-0.007812 0.34375-0.054687 0.48828-0.14844h0.13281v1.7227l-1.7227 0.003906v-1.5781zm0.62109 2.3281v1.7227l-1.7148-0.011719v-1.7227zm-2.4727 1.7227-1.7148-0.011719v-1.7227h1.7227zm0 0.75v1.7227l-1.7148-0.011719v-1.7227zm0.75 0h1.7227v1.7227l-1.7148-0.011719zm1.7227 2.4727v1.7227l-1.7148-0.011719v-1.7227zm0.75 0h1.7227v1.7227h-0.73437l0.007812-0.011719c-0.19922-0.097656-0.42188-0.125-0.64062-0.078125-0.058594 0.023438-0.11328 0.046875-0.16797 0.078125h-0.17969zm0.15625 4.9375c0.16406 0.61719 0.33203 1.1836 0.49609 1.7227h-0.64453v-1.7227zm0.72656 2.4727c0.082031 0.28906 0.17188 0.58594 0.26953 0.87109 0.085938 0.27344 0.1875 0.56641 0.28516 0.85156h-1.4297v-1.7227zm1.7227 4.9453c0.23438 0.60547 0.47266 1.1758 0.70312 1.7227h-0.82422v-1.7188zm9.0234 12.379v0.5625c-0.125-0.18359-0.25-0.375-0.375-0.5625zm0.84766 5.1719c0.24219 0.32031 0.48438 0.62109 0.73047 0.92578l-0.82813 0.45703v-1.5078c0.03125 0.042968 0.066407 0.085937 0.097657 0.12891zm0.14062 3.543 1.4883-0.82422v1.2539l-1.3242 0.003906zm4.7109-1.293h0.26172l-0.26172 0.15234zm0.73047-4.0078-0.73047 0.40625-0.003906-1.3438h0.73047zm-0.73047-1.6875-0.003906-1.7227h0.73047v1.7227zm0-2.4727-0.003906-1.7266h0.73047v1.7227zm0-2.4727-0.003906-1.7344h0.73047v1.7344zm0-2.4844-0.003906-1.7266h0.73047v1.7227zm0-2.4727-0.003906-1.7266h0.73047v1.7227zm0-2.4727-0.003906-1.7266h0.73047v1.7227zm0-2.4727-0.003906-1.7305h0.73047v1.7227zm0-2.4727-0.003906-1.7305h0.73047v1.7227zm0-2.4727-0.003906-1.7305h0.73047v1.7227zm0-2.4727-0.003906-1.7344h0.73047l0.003906 1.7266zm0-2.4727-0.003906-1.7344h0.73047v1.7227zm0-2.4727-0.003906-1.7344h0.73047v1.7227zm-0.75 0-1.7266-0.011719v-1.7227h1.7227zm-2.4727 0-1.7266-0.011719v-1.7227h1.7227zm-1.7266-2.4844v-1.7227h1.7227v1.7227zm0-2.4727v-1.7266h0.12109c0.14844 0.09375 0.31641 0.14062 0.49219 0.14844h1.1133v1.5781zm2.4727-3.5781v-0.62109h1.7227v0.62109zm0-1.3711v-1.7227h1.7227v1.7227zm0-2.4727v-1.1406l0.082031-0.58594h1.6406v1.7227zm2.4727-1.7227h1.7266v1.7227h-1.7266zm1.7266-0.75-1.7266-0.003906v-1.7227h1.7266zm-2.4766 0-1.7227-0.003906v-1.7227h1.7227zm-2.4727 0-1.7227-0.003906v-1.7227h1.7227zm-2.4727 0-1.7227-0.003906v-1.7227h1.7227zm-2.4727 0-1.7266-0.003906v-1.7227h1.7227zm-2.4727 0-1.7266-0.003906v-1.7227h1.7266zm-2.4766 0-1.7227-0.003906v-1.7227h1.7227zm-2.4727 0-1.7266-0.003906v-1.7227h1.7227zm-2.4727 0-1.7266-0.003906v-1.7227h1.7227zm-2.4727 0-1.7266-0.003906v-1.7227h1.7227zm-2.4727 0-1.7305-0.003906v-1.7227h1.7266zm-2.4766 0-1.7266-0.003906v-1.7227h1.7227zm-2.4727 0-1.7266-0.003906v-1.7227h1.7227zm-34.648 66.801h-1.7227v-1.7227h1.7227zm0.75-1.7227h1.7344v1.7227h-1.7344zm1.7344-28.352c-0.050781 0.089843-0.10938 0.1875-0.17969 0.30859l-0.046875 0.082031h-1.5078v-1.7344h1.7344zm-2.9336 4.6562-0.33594 0.48437c-0.042969 0.0625-0.09375 0.13281-0.14062 0.19531h-0.80078l0.003906-1.7227h1.7227v0.36328c-0.14844 0.22656-0.29688 0.46094-0.44922 0.67969zm-3.1641 4 0.019531-0.097657h0.25391c-0.046874 0.058594-0.089843 0.11328-0.13672 0.17188zm1.0234-1.0508c-0.050781 0.070313-0.10547 0.13672-0.16016 0.20703h-0.69531c0.11328-0.56641 0.23047-1.1367 0.36328-1.7227h0.60547v1.3672c-0.035156 0.046875-0.070313 0.09375-0.10938 0.14844zm-0.31641-2.2695c0.13281-0.56641 0.26562-1.1328 0.41797-1.7227h0.011719v1.7227zm2.2227-36.305h0.67969v1.6602h-0.49219c0.019532-0.078125 0.023438-0.16406 0.019532-0.24609zm10.59 12.355c-0.125 0.51172-0.26562 1.0703-0.42969 1.6758h-1.293v-1.7266h1.7227zm-3.8828 11.57h-0.31641v-1.7227h1.0312c-0.23438 0.58594-0.46875 1.1641-0.70703 1.7031zm-1.0664 0h-1.7227v-1.7227h1.7227zm-6.6797 8.1836h1.7227v1.7227h-1.7227zm0.16016-0.75c0.13672-0.44922 0.27734-0.90234 0.42188-1.3438 0.039063-0.12109 0.078125-0.23828 0.13672-0.39062h1.0078v1.7344zm0.82422-2.4844c0.19922-0.58203 0.39453-1.1641 0.60938-1.7227h0.13281v1.7227zm1.4922-3.9766c0.023438-0.054687 0.046876-0.11328 0.070313-0.16797 0.007813-0.019531 0.003906-0.035156 0.011719-0.054687h1.6562v1.7227h-1.7422zm0.046876-0.97266c-0.011719-0.027344-0.035157-0.046875-0.046876-0.074219l-0.003906-1.6484h1.7344v1.7227zm7.8398-23.367h-0.45703v-0.62109h0.36719zm-1.207 0h-1.7266v-0.62109h1.7227zm-2.4727 0h-1.7266v-0.62109h1.7227zm0 2v1.5781h-1.7266v-1.5781zm0 2.3281v1.7227h-1.7266v-1.7227zm0 2.4727v1.7227h-1.7266v-1.7227zm0 2.4727v1.7227h-1.7266v-1.7227zm0 2.4727-0.003906 1.7266h-1.7227v-1.7266zm0 2.4727v1.7227l-1.7266 0.003906v-1.7227zm0.75 0h1.7227v1.7227l-1.7266 0.003906zm-3.2227 1.7227-1.7383 0.003906v-1.7227h1.7344zm0 0.75v1.7227l-1.7383 0.003906v-1.7227zm0 2.4727v1.7227l-1.7383 0.007812v-1.7266zm0.75 1.7227-0.003907-1.7188h1.7227v1.7227zm0-2.4727-0.003907-1.7188h1.7227v1.7227zm2.4727-1.7227h1.7227v1.7227l-1.7266 0.003906zm2.4727 0h0.34375c-0.10938 0.34766-0.22266 0.69922-0.34375 1.0586zm0-0.75v-1.7188h1.0898c-0.15234 0.53906-0.32031 1.1133-0.51172 1.7227zm-0.75-2.4727-1.7266 0.003907v-1.7266h1.7227zm-1.7227-2.4727-0.003906-1.7227h1.7227v1.7227zm0-2.4727-0.003906-1.7227h1.7227v1.7227zm0-2.4727-0.003906-1.7227h1.7227v1.7227zm0-2.4727-0.003906-1.5781h1.7227v1.5781zm6.6719-6.1328h-1.7266v-0.53906h1.7227zm-4.1836-0.53906 0.24609 1.7227h-0.26172v-1.7227zm-0.76562 1.7227h-1.7266v-1.7227h1.7227zm-2.4727 0h-1.7266v-1.7227h1.7227zm-3.9688-1.1836h-0.24219v-0.53906h0.31641zm-0.99219 0h-0.66406l-0.12109-0.53906h0.78516zm1.0039 4.4102v-0.003906c0.14844 0.09375 0.31641 0.14062 0.49219 0.14844h0.98828v1.5781h-1.7344v-1.7266zm1.4805 2.4727v1.7227h-1.7344v-1.7227zm0 2.4727v1.7227h-1.7344v-1.7227zm0 2.4727v1.7227h-1.7344v-1.7227zm0 2.4727v1.7266h-1.7344v-1.7266zm-2.4844 1.7266h-1.7227v-1.7266h1.7227zm0 0.75v1.7227h-1.7227v-1.7227zm0 2.4727v1.7227h-1.7227v-1.7227zm0 2.4727v1.7227l-1.7227 0.003906v-1.7266zm0 2.4727v1.1641c-0.42188-0.050781-0.82812 0.17578-1.0039 0.5625h-0.71875v-1.7227zm-1.3164 2.4766c-0.13672 0.33984-0.27344 0.68359-0.40625 1.0352v-1.0352zm2.0664 9.1367v-1.707h1.0547c-0.31641 0.52734-0.63281 1.0547-0.96094 1.5586-0.027344 0.050781-0.0625 0.097656-0.09375 0.14844zm0-4.9375v-1.7266h1.7344v1.7227zm2.4844-1.7227 1.2891-0.003906c-0.03125 0.058594-0.058594 0.12109-0.089844 0.18359-0.25 0.50781-0.49609 0.99609-0.73828 1.4453-0.019531 0.03125-0.035157 0.0625-0.050781 0.09375h-0.41016zm1.6836-0.80078-0.023437 0.050781-1.6602-0.003906v-1.7227h1.7227v1.5859zm2.125-4.8984h-1.3359v-1.7266h1.7227v0.67188c-0.125 0.35156-0.25391 0.70703-0.38672 1.0547zm1.1406-9.8945v-1.7266h1.7227v1.7227zm0-2.4727v-1.7266h1.7227v1.7227zm0-2.4727v-1.7266h1.7227v1.7227zm0-2.4727v-1.582h1.6094c0.039063-0.007812 0.074219-0.015625 0.11328-0.027343v1.6016zm2.4727-3.6094v-0.53125h1.4844l-0.19922 1.4141h-0.003906c-0.003906 0.082031 0.003906 0.16797 0.019532 0.24609h-1.1914c0.015625-0.078125 0.019531-0.16406 0.015625-0.24609zm1.7227-3.8203-1.7227 0.003906v-1.7266h1.7227zm-2.4727-1.4375-0.039062-0.28516h0.039062zm-2.4727 1.4375-1.7266 0.003906v-1.7266h1.7227zm-2.4727 0-1.7266 0.003906v-0.26172l0.20703-1.4609h1.5156zm-3.7852 0h-0.42578v-1.7227h0.66797zm-1.1758 0-0.95312 0.003906-0.38281-1.7227h1.3359zm-1.4648 5.8477c0.17188-0.007812 0.33984-0.054687 0.48828-0.14844h0.97656v1.7227l-1.7227 0.003906v-1.5781zm1.4688 2.3281v1.7227h-1.7266v-1.7227zm0 2.4727v1.7227h-1.7266v-1.7227zm0 2.4727v1.7227h-1.7266v-1.7227zm-2.4727 1.7227h-1.7266v-1.7227h1.7227zm0 0.75-0.003906 1.7266h-1.7227v-1.7266zm0 2.4727v1.7227l-1.7266 0.003906v-1.7227zm0 2.4727v1.7227l-1.7266 0.003906v-1.7227zm0 2.4727v1.7227l-1.7266 0.007812v-1.7266zm0 2.4727v1.7227l-1.7266 0.007813v-1.7227zm0 2.4727v1.7227l-1.7266 0.007813v-1.7227zm0 2.4727v0.625c-0.12891 0.36719-0.26953 0.73438-0.39062 1.1016l-1.3359 0.007813v-1.7266zm-0.64453 2.4727c-0.18359 0.56641-0.36719 1.1406-0.54297 1.7344l-0.53906 0.007812v-1.7305zm-0.76172 2.4844c-0.10547 0.36719-0.21484 0.73047-0.32031 1.1133v-1.1055zm-1.0703 9.0742v0.082032h-1.6094v-0.97266zm0 0.83203v0.65625l-1.1406-0.65625zm0.82422 17.316c0.089844 0.60156 0.18359 1.1719 0.27344 1.7227h-0.34766v-1.7227zm-0.82422-0.75h-1.6094v-1.7227h1.6094zm0 0.75v1.7227h-1.6094v-1.7227zm0 2.4727v1.7227h-1.6094v-1.7227zm0.75 0h0.48047l0.039063 0.20703c0.10156 0.53906 0.19922 1.0391 0.29688 1.5156h-0.81641zm-0.75-5.6992-1.6094 0.003906v-1.7227l1.6094-0.003907zm-1.6094 8.1719h1.6094v1.7227l-1.6094 0.003906zm2.3594 0h0.97266c0.050781 0.23047 0.10156 0.45703 0.15234 0.67969 0.085937 0.36719 0.16797 0.70703 0.25 1.0469h-1.375zm3.4336 1.7227c-0.11328-0.45703-0.23047-0.94922-0.35938-1.4961-0.015624-0.070313-0.035156-0.15234-0.050781-0.22656h1.1758v1.7227zm-0.57422-2.4727c-0.11328-0.53516-0.22656-1.1094-0.34375-1.7227h1.6797v1.7227zm-1.1914-7.4219c-0.046874-0.34766-0.085937-0.69531-0.12891-1.0586l-0.054687-0.48438v0.003906c-0.015625-0.0625-0.035157-0.125-0.0625-0.18359h0.29688v1.7227zm-4.0234-2.4727-0.003906-1.7227h1.6094v1.7227zm0-2.4727-0.003906-1.7227h1.6094v1.7227zm0-2.4727-0.003906-1.7266h1.6094v1.7266zm0-2.4727-0.003906-1.7266h0.75781l0.85156 0.49219v1.2344zm2.3594-0.80078 1.3906 0.80078-1.3945-0.003906zm2.5938-0.8125-0.11719-0.070312v-0.039063h0.16016zm-1.4883-0.85938-1.1094-0.63672v-1.0898h0.75391l0.97266 0.53906v1.1875zm1.3711-6.6719h0.26563c-0.085938 0.12109-0.17578 0.24219-0.26563 0.36719zm4.957-7.4297h0.007812l-0.007812 0.011718zm4.1992-3.9453v0.72266h-0.33203c0.10156-0.24219 0.21094-0.48438 0.32422-0.72656zm2.3828-5.9492h0.09375v1.7227h-0.73047c0.19922-0.57031 0.41406-1.1328 0.625-1.7305zm1.4258-4.5508c0.039063-0.13672 0.074219-0.26953 0.10938-0.39453h1.0312v1.7227h-1.5273c0.12891-0.46875 0.26172-0.92188 0.37891-1.3359zm0.30469-1.1445c0.125-0.47266 0.23828-0.92969 0.33984-1.3438l-0.007813-0.011719c0.027344-0.12109 0.03125-0.25 0.011719-0.37891h0.48047v1.7266zm-0.23047-2.4727-0.007813-0.011719c-0.054687-0.03125-0.10937-0.054687-0.16797-0.078125-0.16406-0.03125-0.33203-0.027344-0.49219 0.023438v-1.668h1.7227v1.7227zm-0.66016-2.4727-0.007813-1.7344h1.7227v1.7227zm0-2.4727-0.007813-1.7344h1.7227v1.7227zm0-2.4727-0.007813-1.7383h1.7227v1.7227zm3.4258-3.5781 0.089844-0.62109h0.68359v0.62109zm0.19531-1.3711 0.003907-0.03125 0.003906-0.011718 0.23828-1.6797h0.33203v1.7227zm0.35547-2.4727 0.22266-1.5703v1.5703zm0.97266-1.7227h1.7227v1.7227l-1.7305-0.011719zm2.4727 0h1.1992l0.24609 1.7227h-1.4453zm5.7891 1.7227h-0.83984l-0.007812-1.7383h1.0859zm-1.5898 0-0.74219-0.011719-0.039063-0.28516-0.20312-1.4375h0.97656zm-0.625 0.75h0.625v0.53906h-0.54687zm1.375 0h0.73438l-0.078126 0.53906h-0.65625zm3.1094-2.4727h1.0898v1.7227l-1.3438-0.011719zm1.8398 0 1.7148-0.015625v1.7227l-1.7266 0.003906zm2.4727 0h0.089843l0.24609 1.7227-0.34375-0.011719zm1.7227-0.75-1.7305-0.015625v-1.7227h1.7227zm-2.4727 0-1.7344-0.015625v-1.7227h1.7266zm-2.4727 0-1.7344-0.015625v-1.7227h1.7227zm-2.4727 0-1.7344-0.015625v-1.7227h1.7227zm-2.4727 0-1.7383-0.015625v-1.7227h1.7227zm-2.4727 0-1.7383-0.015625v-1.7227h1.7227zm-2.4727 0-1.7383-0.015625v-1.7227h1.7227zm-2.4727 0-1.7422-0.015625v-1.7227h1.7227zm-2.4727 0-1.7422-0.015625v-1.7227h1.7227zm-2.4727 0-1.7422-0.015625v-1.7227h1.7227zm-2.4727 0-1.7461-0.015625v-1.7227h1.7227zm-2.4727 0-1.7461-0.015625v-1.7227h1.7227zm-2.4727 0-1.7578-0.015625v-1.7227h1.7344zm-2.4844 0-1.5234-0.015625-0.003906-0.023438h-0.003906c-0.035156-0.15625-0.10938-0.30078-0.21484-0.42188v-1.2773h1.7227zm-2.4727 8.3164v1.5781l-1.7461-0.011719v-1.5781zm0 2.3281v1.7227l-1.7461-0.011719v-1.7227zm0 2.4727v1.7227l-1.7461-0.011719v-1.7227zm-2.4961 1.7109h-1.6094v-1.7227h1.6094zm0 0.75v1.7227h-1.6094v-1.7227zm0 2.4727v1.7266h-1.6094v-1.7266zm0 2.4727v1.7227l-1.6094 0.003906v-1.7227zm0 2.4727v1.7227l-1.6094 0.003906v-1.7227zm0 2.4727v1.7227l-1.6094 0.007812v-1.7266zm0 2.4727v1.7227l-1.6094 0.007813v-1.7227zm0 2.4727v1.7227l-1.6094 0.007813v-1.7227zm0 2.4727v1.7227l-1.6094 0.011719v-1.7266zm0 2.4727v1.7344l-1.6094 0.007812v-1.7305zm0 2.4844v1.7227l-1.6094 0.011719v-1.7266zm0 2.4727v1.6797l-0.011719 0.054687h-1.5977v-1.7227zm-0.17578 2.4727c-0.11719 0.52344-0.22656 1.043-0.32422 1.5508l-1.1055-0.61328v-0.9375zm-1.4336 29.699h1.6094v1.7227h-1.6094zm2.3594 0h1.5625c0.023437 0.074219 0.042968 0.14453 0.0625 0.21484l0.097656 0.35156v1.1562h-1.7227zm4.0859 1.7227c-0.16797-0.73047-0.32812-1.3125-0.44141-1.7031l-0.007813-0.023437h0.55469l0.003906 1.7266zm0.85938-2.4766v-1.7227h1.7344v1.7227zm0-2.4727v-1.7227h1.7344v1.7227zm-0.75-4.9453h-1.7227v-1.7227h1.7227zm-1.7227-2.4727v-1.7227h1.7227v1.7227zm-0.75-2.4727-1.7227-0.003907v-1.7227h1.7227zm-1.7227-2.4766v-1.7227h1.7227v1.7227zm0-2.4727v-1.7266h1.7227v1.7266zm2.9219-4.9492h-0.44531v-0.77344l0.61328 0.33984zm0.98828-3.1406c-0.03125 0.023437-0.09375 0.082031-0.12109 0.10938h-0.003906c-0.14453 0.15234-0.23047 0.34766-0.24609 0.55859h-0.011718l-1.0312-0.57031c0.12891-0.16406 0.26562-0.32812 0.39062-0.49219l0.097657-0.12109c0.089843-0.10938 0.17578-0.21875 0.23438-0.30469 0.0625-0.082031 0.11328-0.15234 0.17578-0.23437h0.80469v0.79297c-0.10156 0.085938-0.19141 0.17578-0.29297 0.26172zm0.046875-1.8047c0.078125-0.10547 0.16406-0.21875 0.24219-0.32422v0.32422zm1.7383-2.4766c0.32812-0.48828 0.66016-0.98047 0.98438-1.4883v1.4883zm1.7344-2.4727v-0.23047c0.16016-0.26172 0.32031-0.51562 0.48047-0.77734 0.10547-0.17578 0.21484-0.35938 0.33594-0.57031 0.027343-0.046875 0.054687-0.097656 0.085937-0.14453h0.82422v1.7227zm1.3281-2.4727c0.12891-0.22656 0.25781-0.45703 0.39453-0.70703v0.70703zm1.1445-1.7344h1.7227v1.7344l-1.7227-0.003906zm0.19141-0.75c0.10938-0.21094 0.21484-0.42578 0.32031-0.64453 0.16797-0.32422 0.33594-0.67188 0.50391-1.0273l0.023438-0.054687h0.67969v1.7227zm2.2812-2.4727 0.003906-1.7266h1.7227v1.7227zm0.015625-2.4727c0.17578-0.42188 0.35156-0.85156 0.51953-1.2734 0.070312-0.15625 0.12891-0.30859 0.17969-0.45313h1.0117v1.7227zm2.4609-2.4766v-1.7266h1.7227v1.7227zm0-2.4727v-1.7266h1.7227v1.7227zm2.4727-2.4727v-1.7266h1.7227v1.7227zm0-2.4727v-1.7305h1.7227l0.003906 1.7266zm0-2.4727v-1.7305h1.7227v1.7227zm0-2.4727v-1.7305h1.7227v1.7227zm0-4.9453v-1.5859h1.7227v1.5781zm2.4727-3.5781v-0.62109h1.7227v0.62109zm0-1.3711 0.003906-1.7305h1.7227v1.7227zm2.4727-1.7227h1.5547l0.082032 0.57422 0.089844 0.63281v0.51953l-1.7227-0.011718zm7.4648 1.6836 0.003906-0.011719 0.23828-1.6797h1.4414v1.7227h-1.6875zm2.4336-1.6914h1.7266v1.7227h-1.7266zm2.4727 0h0.44141l0.015625 0.10156 0.22266 1.5781 0.003906 0.007812 0.003907 0.035157h-0.68359zm2.4727-2.4727h1.7227v1.7227h-1.7188zm4.1992 3.2109v0.98438h-0.14062zm0.75-0.73828h1.7266v1.7227h-1.7266zm2.4766 0h1.7227v1.7227h-1.7227zm1.7227 2.4727v0.62109h-1.7227v-0.62109zm-1.6836 2.6211h1.6836v1.5781h-1.7227v-1.1914c0.011719-0.125 0.027344-0.25781 0.039063-0.38672zm-0.039063 7.2734h1.7227v1.7227h-1.5664c-0.066406-0.48047-0.11719-0.93359-0.15625-1.3633zm2.4727 2.4727h1.7227v1.7266h-1.7227zm1.7227 2.4766v1.7227h-1.7227v-1.7227zm0 2.4727v1.7227h-1.7227v-1.7227zm0.75 2.4727h1.6797c0.015625 0.039062 0.027344 0.078125 0.042969 0.11719v1.6055l-1.7227 0.003906zm1.7227 2.4727v1.7227l-1.7227 0.003907v-1.7227zm0.75 2.4727h1.1406c0.015625 0.035157 0.03125 0.078126 0.039062 0.089844 0.17969 0.41797 0.36328 0.82422 0.54297 1.2188v0.41406l-1.7188 0.003906zm2.4727 2.8906c0.21875 0.44922 0.43359 0.88281 0.64844 1.3047h-0.64844zm1.0391 2.0547c0.027344 0.050781 0.054687 0.10156 0.078125 0.15234 0.035156 0.054687 0.0625 0.10938 0.10156 0.1875 0.17578 0.32812 0.33984 0.625 0.50781 0.92188v0.46875l-1.7227 0.007812v-1.7305zm1.4375 2.5898 0.007812 0.015625c0.3125 0.54688 0.64062 1.0742 0.96875 1.6016h-0.98047zm2.4727 3.9531c0.03125 0.046875 0.0625 0.089844 0.09375 0.13672h-0.09375zm3.3867 8.3086-0.18359 0.10547-0.039063-0.10547zm-0.37109 3.9062c0.13281-0.29688 0.27344-0.59375 0.41797-0.89844l0.21094-0.45312 0.035157-0.074219h0.51562l0.003907 1.7266h-1.3164c0.042969-0.10156 0.082032-0.19531 0.13281-0.30078zm1.1836 3.5234v1.7227h-1.7227v-1.7227zm0 2.4727v1.207c-0.019531 0.17188-0.039063 0.34766-0.058594 0.51953h-1.6641v-1.7227zm-4.1992 2.4727 1.7266 0.003906v1.7227h-1.7227zm1.7266 2.4766v1.7227h-1.7227v-1.7227zm0 2.4727v1.7227h-1.7227v-1.7227zm-4.1953 4.9492h1.7227v1.7227h-1.7266zm2.4727 0h1.7227v1.6367l-0.019531 0.089844-1.7031-0.003907zm3.1406 4.9492h1.0586v1.7227h-1.2539c0.050781-0.61328 0.11719-1.1836 0.19141-1.7266zm0.10938-0.75c0.10547-0.63672 0.21875-1.2188 0.33203-1.7227h0.61719v1.7227zm1.6953-1.7266h1.7227v1.7227h-1.7227zm2.4727 0h0.73047v1.7227h-0.73047zm0-0.75v-1.7227h0.73047l0.003906 1.7227zm0-2.4766v-1.7227h0.73047v1.7227zm0-2.4727v-1.7227h0.73047v1.7227zm0-2.4727v-1.7227h0.73047v1.7227zm0-2.4727v-1.7227h0.73047v1.7227zm0-2.4727v-1.7227h0.73047v1.7227zm0-2.4727v-1.7266h0.73047v1.7227zm0-2.4727v-1.7266h0.73047v1.7227zm0-2.4727v-1.7305h0.73047l0.003906 1.7266zm0-2.4727v-1.7305h0.73047v1.7227zm0.73047-39.594h-0.73047v-1.7266h0.73047zm-1.4805 0-1.7227-0.003907v-1.7227h1.7227zm-1.7227-2.4727v-1.582h1.7227v1.5781zm2.4727-4.1992h1.7266v0.62109l-1.7266-0.003907zm0-0.75v-1.7266h1.7266v1.7227zm1.7266-7.4219-1.7266-0.003907v-1.7227h1.7266zm-2.4766 0-1.7227-0.003907v-1.7227h1.7227zm-2.4727 0-1.7227-0.003907v-1.7227h1.7227zm-2.4727 0-1.7227-0.003907v-1.7227h1.7227zm-2.4727 0-1.7266-0.003907v-1.7227h1.7227zm-2.4727 0-1.7266-0.003907v-1.7227h1.7266zm-2.4766 0-1.7227-0.003907v-1.7227h1.7227zm-2.4727 0-1.7266-0.003907v-1.7227h1.7227zm-2.4727 0-1.7266-0.003907v-1.7227h1.7227zm-2.4727 0-1.7266-0.003907v-1.7227h1.7227zm-2.4727 0-1.7305-0.003907v-1.7227h1.7266zm-2.4766 0-1.7266-0.003907v-1.7227h1.7227zm-2.4727 0-1.7266-0.003907v-1.7227h1.7227zm-2.4727 0-1.7266-0.003907v-1.7227h1.7227zm-2.4727 0-1.7305-0.003907v-1.7227h1.7266zm-2.4727 0-1.7305-0.003907v-1.7227h1.7227zm-2.4727 0-1.7305-0.003907v-1.7227h1.7227zm-2.4727 0-1.7344-0.003907v-1.7227h1.7227zm-2.4727 0-1.7344-0.003907v-1.7227h1.7227zm-2.4727 0-1.7344-0.003907v-1.7227h1.7227zm-2.4727 0-1.7383-0.003907v-1.7227h1.7227zm-2.4727 0-1.7383-0.003907v-1.7227h1.7227zm-2.4727 0-1.7383-0.003907v-1.7227h1.7227zm-2.4727 0-1.7422-0.003907v-1.7227h1.7227zm-2.4727 0-1.7422-0.003907v-1.7227h1.7227zm-2.4727 0-1.7539-0.003907v-1.7227h1.7344zm-2.4844 0-1.7422-0.003907v-1.7227h1.7227zm-2.4727 0-1.7422-0.003907v-1.7227h1.7227zm0 0.75v0.92578l-0.019531-0.003906c-0.0625-0.007813-0.12891-0.007813-0.19141-0.003906-0.40625 0.074218-0.72266 0.39453-0.79297 0.80078h-0.73828v-1.7227zm-2.4922 1.7188h-1.7266v-1.7227h1.7266zm0 0.75v1.7227l-1.7266 0.003906v-1.7266zm0.75 0h0.78125l0.24219 1.7227-1.0234 0.003906zm1.1367 2.4727 0.24609 1.7227-1.3828 0.003907v-1.7227zm0.35156 2.4727 0.089844 0.62109-1.5781 0.003906v-0.62109zm-2.2383 2.625v1.5781h-1.6094v-1.5781zm0 2.3281v1.7227h-1.6094v-1.7227zm-1.6094 64.328h1.6094v1.7227h-1.6094zm2.3594 0h1.7227v1.7227h-1.7227zm2.4727 1.2969c0.027344 0.14453 0.050781 0.28516 0.074219 0.42578h-0.074219zm0.1875 1.1758c0.074219 0.58203 0.13281 1.1562 0.17578 1.7227h-0.36328v-1.7227zm2.2852-2.4727h1.7344v1.7227h-1.7344zm2.4844 0h1.2812l0.082031 0.64844c0.042969 0.37109 0.078126 0.72266 0.11719 1.0742h-1.4805zm0-3.2266v-1.7227h0.46875c0.11328 0.55078 0.21875 1.125 0.31641 1.7227zm0-2.4727v-1.4453c0.10547 0.46484 0.21094 0.94922 0.31641 1.4453zm-2.4844-7.4219v-1.7227h0.25391l0.03125 0.089844c0.16406 0.47266 0.35156 1.0312 0.54688 1.6328zm-2.4727-4.9492v-1.7188h0.77344l0.015624 0.039062c0.13672 0.30078 0.26172 0.59375 0.39063 0.91406 0.11719 0.26562 0.21094 0.51562 0.31641 0.77344zm0-2.4727v-0.96094c0.15234 0.32422 0.29688 0.64453 0.44141 0.96094zm2.4727-9.1445h0.125c-0.042968 0.039063-0.085937 0.078125-0.125 0.11328zm2.4844-2.4727h0.21094c-0.070313 0.074219-0.14062 0.14844-0.21094 0.22266zm3.7695-4.2188-0.56641 0.75781c-0.066406 0.085937-0.125 0.15625-0.1875 0.23828h-0.53906l-0.003906-1.7266h1.7227v0.14062c-0.14453 0.20312-0.28906 0.40625-0.42578 0.58984zm1.1914-1.6719-0.011719 0.019531v-1.5586h1.0078c-0.33984 0.54297-0.67578 1.0664-0.99609 1.5391zm3.6562-6.2969c-0.23828 0.49609-0.48438 0.97266-0.73047 1.4375-0.019531 0.03125-0.035156 0.0625-0.054688 0.097656l-0.41016-0.003906v-1.7227h1.293zm1.6133-3.4336-0.007812 0.019531h-0.32422l-0.003907-1.7266h1.0391c-0.22656 0.58984-0.46484 1.1602-0.70312 1.7031zm2.1406-6.25v-0.40234h0.089844c-0.03125 0.13281-0.058594 0.26562-0.089844 0.39844zm0.25391-1.1484h-0.25391v-1.7305h0.57031c-0.097657 0.59766-0.20313 1.1719-0.31641 1.7266zm0.42578-2.4727h-0.67969v-1.7305h0.87109c-0.046875 0.53516-0.10938 1.1055-0.19141 1.7227zm0.23828-2.4727h-0.92188l0.003906-1.7305h0.99219c-0.007812 0.57031-0.03125 1.1445-0.074218 1.7227zm0.007812-4.9453h-0.92969l0.003906-1.5859h0.79297c0.058594 0.54688 0.10547 1.0664 0.13672 1.5781zm1.543-3.5781v-0.62109h1.7227v0.62109zm7.4219 0v-0.62109h1.7227v0.62109zm2.4727 0v-0.62109l1.7305-0.007812v0.62109zm2.4727-0.62109h0.79688l0.089843 0.62109-0.87891-0.007813zm2.4727-2.4062v-0.070312h1.7227v0.53906l-1.6484-0.003906zm3.9492 2.4062h0.24609v0.62109h-0.33594zm0.99609 0h1.7266v0.62109l-1.7188-0.007813zm4.207 14.836v1.7227h-0.54297c-0.15234-0.54688-0.29688-1.1289-0.43359-1.7227zm0 2.4727v0.97656c-0.10547-0.3125-0.20703-0.63672-0.3125-0.97656zm2.4727 4.9453v1.7227h-0.070313l-0.027344-0.058593c-0.25391-0.52734-0.51562-1.0898-0.77734-1.668zm2.4727 4.9492v1.5312c-0.29297-0.48438-0.58594-0.99609-0.88281-1.5312zm0.75 2.4727h1.7227v1.7344h-0.76172c-0.039062-0.058594-0.085937-0.12109-0.125-0.17969l-0.070312-0.10156c-0.09375-0.14062-0.19141-0.28516-0.3125-0.48047-0.16797-0.24609-0.30859-0.47266-0.45312-0.69922zm1.7227 2.4844v0.33203c-0.082031-0.10938-0.15625-0.22266-0.23828-0.33203zm2.4766 2.4727v0.96875c-0.26562-0.30469-0.53906-0.62891-0.82031-0.96875zm2.4727 2.4727v1.1172c-0.35156-0.34375-0.71875-0.71875-1.0977-1.1172zm2.4766 2.4766v0.91406c-0.32812-0.28125-0.67969-0.58984-1.043-0.91406zm-0.20703 12.367 0.20703 0.003906v1.7227h-0.85547c0.19531-0.54297 0.40234-1.1094 0.64844-1.7227zm-2.4648 7.4219h0.19531v1.7227h-0.64062c0.15234-0.60156 0.30469-1.1836 0.44531-1.7188zm-1.5273 9.8984h1.7227v1.7227h-1.7227zm2.4727 0h1.5391c-0.10937 0.51953-0.21484 1.0898-0.3125 1.7227h-1.2266zm2.875 5.4414c0.007812-0.17188 0.019531-0.32813 0.03125-0.49609h1.293v1.7227l-1.3398 0.003906c0-0.41016 0.003906-0.81641 0.015625-1.2266zm2.0742-1.2461v-1.7227h1.7227v1.7227zm2.4727-1.7227h0.73047v1.7227h-0.73047zm0-67.555v-1.5742h0.73047v1.5781zm2.4766-4.9492v-0.97266l0.13672 0.97266zm-0.75-9.8945-1.7266 0.003906v-0.94922h1.7266zm-2.4766 0-1.7227 0.003906v-0.94922h1.7227zm-2.4727 0-1.7227 0.003906v-0.94922h1.7227zm-2.4727 0-1.7227 0.003906v-0.94922h1.7227zm-2.4727 0-1.7266 0.003906v-0.94922h1.7227zm-2.4727 0-1.7266 0.003906v-0.94922h1.7266zm-2.4766 0-1.7227 0.003906v-0.94922h1.7227zm-2.4727 0-1.7266 0.003906v-0.94922h1.7227zm-2.4727 0-1.7266 0.003906v-0.94922h1.7227zm-2.4727 0-1.7266 0.003906v-0.94922h1.7227zm-2.4727 0-1.7305 0.003906v-0.94922h1.7266zm-2.4766 0-1.7266 0.003906v-0.94922h1.7227zm-2.4727 0-1.7266 0.003906v-0.94922h1.7227zm-2.4727 0-1.7266 0.003906v-0.94922h1.7227zm-2.4727 0-1.7305 0.003906v-0.94922h1.7266zm-2.4727 0-1.7305 0.003906v-0.94922h1.7227zm-2.4727 0-1.7305 0.003906v-0.94922h1.7227zm-2.4727 0-1.7344 0.003906v-0.94922h1.7227zm-2.4727 0-1.7344 0.003906v-0.94922h1.7227zm-2.4727 0-1.7344 0.003906v-0.94922h1.7227zm-2.4727 0-1.7383 0.003906v-0.94922h1.7227zm-2.4727 0-1.7383 0.003906v-0.94922h1.7227zm-2.4727 0-1.7383 0.003906v-0.94922h1.7227zm-2.4727 0-1.7422 0.003906v-0.94922h1.7227zm-2.4727 0-1.7422 0.003906v-0.94922h1.7227zm-2.4727 0-1.7539 0.003906v-0.94922h1.7344zm-2.4844 0-1.7422 0.003906v-0.94922h1.7227zm-2.4727 0-1.7422 0.003906v-0.94922h1.7227zm-2.4727 0-1.7461 0.003906v-0.94922h1.7266zm0 0.75-0.019531 1.7266h-1.7266v-1.7227zm-2.4961 1.7266h-0.375v-1.7227h0.375zm-0.42578 3.4375c0.023438-0.066406 0.035156-0.13281 0.042969-0.20312v-0.011719h0.38281v1.7227h-0.64062zm0.42578 2.2617v1.7227h-0.99219l0.24609-1.7227zm0.75 0h1.7266v1.7227h-1.7266zm1.7266 2.4727v0.62109h-1.7266v-0.62109zm-1.6094 71.75h1.6094v1.7227l-1.6094 0.003906zm2.3594 0h1.7227v1.7227l-1.7227 0.003906zm1.7227 2.4727v1.7227l-1.7227 0.003906v-1.7227zm3.2227-2.4727h1.7344v1.7227l-1.7344 0.003906zm2.4844 0h1.5586c0.027344 0.26172 0.050781 0.51953 0.074219 0.78516 0.027344 0.32812 0.046875 0.64062 0.070312 0.9375l-1.7031 0.003906zm3.1719-3.4023c-0.027344-0.19922-0.054687-0.40234-0.085937-0.58594-0.074219-0.51562-0.14844-1.0312-0.23438-1.4883-0.13672-0.87109-0.28906-1.7109-0.45703-2.5156-0.17578-0.875-0.35937-1.7109-0.54687-2.5117-0.21484-0.89453-0.42969-1.7266-0.64063-2.5078-0.1875-0.67188-0.375-1.3047-0.55078-1.8906l-0.085937-0.28906c-0.03125-0.09375-0.054688-0.17969-0.097656-0.32812-0.28906-0.91016-0.55859-1.6953-0.78516-2.3555l-0.046875-0.14063c-0.007812-0.027343-0.019531-0.050781-0.03125-0.078124-0.26562-0.74219-0.55859-1.5625-0.91016-2.4336-0.19922-0.51172-0.40625-1.0312-0.63672-1.5547-0.12891-0.32031-0.26562-0.63672-0.40625-0.94922-0.3125-0.72656-0.66797-1.5-1.043-2.2891l1.2109-3.1719h0.007812c0.13281-0.34766 0.058594-0.73828-0.1875-1.0156 0.046876-0.023437 0.09375-0.050781 0.14063-0.082031 0.83984-0.70703 1.668-1.457 2.4648-2.2383l0.070313-0.070312c0.82812-0.80469 1.5938-1.6016 2.3477-2.4414 0.007812-0.011719 0.070312-0.078125 0.078125-0.089844l0.10938-0.12109 0.011719-0.015625c0.015625-0.015625 0.027343-0.03125 0.042969-0.050781 0.32031-0.35547 0.99219-1.1211 1.8789-2.2656l0.58594-0.78125c0.38281-0.51562 0.79688-1.0977 1.2344-1.7344 0.41406-0.61328 0.85156-1.2891 1.2734-1.9844 0.12109-0.18359 0.23047-0.37109 0.33203-0.54297 0.47266-0.78125 0.95703-1.6289 1.4336-2.5234 0.26172-0.49219 0.51953-0.99219 0.76562-1.4961l0.24609-0.48828c0.074218-0.15234 0.15234-0.3125 0.25-0.51953 0.38281-0.78906 0.77734-1.625 1.1562-2.5117 0.29297-0.66406 0.58203-1.3633 0.86328-2.0977l0.042969-0.11719c0.03125-0.085938 0.066406-0.17578 0.12891-0.32812 0.25-0.71484 0.54297-1.5703 0.82422-2.5312 0.23047-0.80078 0.44141-1.6562 0.62891-2.5469 0.13672-0.65625 0.25781-1.3398 0.37891-2.0742l0.070313-0.46094c0.13281-0.9375 0.22266-1.7695 0.26953-2.5352 0.070312-0.84766 0.10547-1.7109 0.10547-2.5312 0.019531-0.86719 0.003906-1.7305-0.050782-2.543-0.027344-0.61719-0.09375-1.2617-0.16406-1.9062h2.832l-0.003906 0.007812c0.28906 0 0.5625-0.12891 0.75391-0.34766s0.27734-0.50781 0.23438-0.79688l-0.20312-1.4141h1.3867l-0.19922 1.4141c-0.042969 0.28125 0.039063 0.56641 0.21875 0.78125 0.18359 0.21875 0.44922 0.34766 0.73438 0.35547v65.738zm19.742-65.73h1.2539v65.73h-1.2539zm3.2539 0h1.2539v65.73h-1.2539zm3.2539-0.035156c0.22266-0.03125 0.42969-0.14062 0.58594-0.30859 0.1875-0.21875 0.27344-0.50781 0.23438-0.79688l-0.20312-1.4141h1.5703l-0.20312 1.418c-0.039062 0.28516 0.046875 0.57422 0.23438 0.79297 0.19141 0.21875 0.46484 0.34766 0.75781 0.34766h2.7461c-0.070312 0.66406-0.125 1.293-0.15234 1.8867-0.054688 0.82422-0.074219 1.6875-0.054688 2.5391 0 0.84375 0.035157 1.7031 0.10547 2.5391 0.050781 0.78125 0.14062 1.6172 0.26953 2.543l0.074219 0.48438c0.10547 0.69922 0.23047 1.3672 0.36328 2.0039l0.011719 0.058594c0.1875 0.88672 0.39844 1.7422 0.62891 2.5469 0.27344 0.94141 0.57031 1.8047 0.82812 2.543 0.32812 0.87891 0.66797 1.7188 1.0156 2.4961 0.015625 0.039063 0.035156 0.085938 0.054688 0.12891h-0.003906c0.37109 0.84375 0.75391 1.6484 1.1172 2.4141 0.082031 0.17578 0.16406 0.35156 0.23828 0.49609 0.33203 0.69531 0.67578 1.3633 1.0078 1.9844l0.14453 0.26953c0.44922 0.83203 0.87109 1.5742 1.2891 2.2578 0.35547 0.60937 0.74609 1.2305 1.207 1.9141 0.10938 0.17969 0.22656 0.35547 0.33594 0.52344l0.070313 0.10547c0.5625 0.82422 1.1406 1.625 1.8516 2.5547 0.10156 0.13281 0.19922 0.26172 0.28906 0.36719 0.52734 0.66406 1.0508 1.2891 1.5508 1.8516l0.24609 0.27734c0.25391 0.28516 0.49609 0.54687 0.73047 0.78906 0.59375 0.63672 1.1641 1.2188 1.6914 1.7266 0.19922 0.19922 0.39844 0.39063 0.58984 0.57031l0.25391 0.23828c0.62109 0.55859 1.1875 1.0664 1.6953 1.4883 0.015625 0.015624 0.039063 0.019531 0.054688 0.03125l0.007812 0.003906c-0.23438 0.27734-0.30078 0.66016-0.17188 1.0039l1.2109 3.168-0.12109 0.25391c-0.15234 0.32031-0.30078 0.63281-0.42969 0.92578-0.12891 0.26953-0.24219 0.53516-0.35547 0.79688l-0.13281 0.30469c-0.39062 0.88672-0.73438 1.7266-1.0391 2.5039-0.34375 0.85547-0.63281 1.6523-0.89062 2.3789-0.03125 0.0625-0.054688 0.125-0.070313 0.19141-0.007812 0.023437-0.019531 0.0625-0.03125 0.10547-0.22656 0.65234-0.48828 1.4336-0.78906 2.3594-0.22656 0.74609-0.46875 1.5859-0.73047 2.5039-0.20703 0.76953-0.42188 1.6016-0.64062 2.5039-0.11328 0.48438-0.22656 0.98828-0.33594 1.5039-0.042969 0.19531-0.085938 0.39844-0.12891 0.60156l-0.082031 0.39453c-0.16406 0.80859-0.32031 1.6484-0.45312 2.5078-0.11328 0.67578-0.21875 1.375-0.32031 2.0898h-17.723zm19.305 69.52v1.375h-0.11328c0.035157-0.42969 0.070313-0.89062 0.11328-1.375zm0.75-0.34766h1.7227v1.7227h-1.7227zm2.4727 0h1.1211c-0.070313 0.54297-0.12891 1.1172-0.17578 1.7227h-0.94531zm7.4219 2.4727h0.73047v0.90234l0.003906-0.003906c-0.23828 0.15234-0.48047 0.28906-0.73438 0.41016zm-70.027-85.82v0.94531h-0.375v-0.94531zm-1.1016 11.594h1.1016v0.62109h-1.1875zm1.9688 75.129v-0.90234h1.6094v1.6602c-0.37891-0.12891-0.74609-0.28516-1.1016-0.46484-0.17188-0.085937-0.33594-0.18359-0.49609-0.28906zm7.3047-0.69922v-0.20312h1.7344v0.45312c-0.054687 0-0.10938 0-0.16406-0.003906-0.52734-0.042969-1.0547-0.125-1.5703-0.25zm6.0234-2.9727c-0.007813-0.058594-0.011719-0.11328-0.015625-0.17578-0.027344-0.29688-0.066407-0.61719-0.10156-0.92969h43.473c-0.035156 0.3125-0.074218 0.63281-0.10156 0.92578-0.007812 0.0625-0.011719 0.11719-0.015625 0.17969zm45.023 2.7734v-0.007812h0.16406v0.26562c-0.058594-0.011719-0.12109-0.019531-0.17969-0.035157zm0.91406 0.38281v-0.38672h1.7227v0.44922h0.003906c-0.57812 0.027343-1.1523 0.007812-1.7266-0.0625z"/></svg>
